<svg xmlns="http://www.w3.org/2000/svg" xmlns:xlink="http://www.w3.org/1999/xlink" version="1.1" data-diagram-type="SEQUENCE" style="width:683px;height:1289px;background:#FFFFFF;" width="683px" height="1289px" viewBox="0 0 683 1289" zoomAndPan="magnify" preserveAspectRatio="none" contentStyleType="text/css"><defs/><g font-family="sans-serif" lengthAdjust="spacing"><rect x="8" y="8" width="662.755" height="16.641" fill="#F9F9F9" style="stroke:#DDD;stroke-width:3;" rx="2.5" ry="2.5"/><text x="15" y="18.641" fill="#000" font-size="10" textLength="361.23" font-family="monospace">Please use CSS style instead of skinparam ParticipantPadding</text><rect x="145.573" y="839.641" width="286.298" height="256" fill="none" style="stroke:#000;stroke-width:1.5;"/><g><title>worker A</title><rect x="78.839" y="105.641" width="8" height="1099" fill="#000" fill-opacity="0"/><line x1="82.339" y1="105.641" x2="82.339" y2="1204.641" style="stroke:#181818;stroke-width:0.5;stroke-dasharray:5,5;"/></g><g><title>worker B</title><rect x="158.073" y="105.641" width="8" height="1099" fill="#000" fill-opacity="0"/><line x1="161.573" y1="105.641" x2="161.573" y2="1204.641" style="stroke:#181818;stroke-width:0.5;stroke-dasharray:5,5;"/></g><g><title>token store</title><rect x="398.496" y="105.641" width="8" height="1099" fill="#000" fill-opacity="0"/><line x1="401.996" y1="105.641" x2="401.996" y2="1204.641" style="stroke:#181818;stroke-width:0.5;stroke-dasharray:5,5;"/></g><g><title>token endpoint</title><rect x="553.313" y="105.641" width="8" height="1099" fill="#000" fill-opacity="0"/><line x1="556.813" y1="105.641" x2="556.813" y2="1204.641" style="stroke:#181818;stroke-width:0.5;stroke-dasharray:5,5;"/></g><rect x="47.721" y="76.641" width="69.234" height="28" fill="#E3E3E3" style="stroke:#181818;stroke-width:0.5;" rx="2.5" ry="2.5"/><text x="54.721" y="94.421" fill="#000" font-size="14" textLength="55.234" font-family="Helvetica">worker A</text><rect x="126.956" y="76.641" width="69.234" height="28" fill="#E3E3E3" style="stroke:#181818;stroke-width:0.5;" rx="2.5" ry="2.5"/><text x="133.956" y="94.421" fill="#000" font-size="14" textLength="55.234" font-family="Helvetica">worker B</text><text x="364.365" y="88.421" fill="#000" font-size="14" textLength="69.262" font-family="Helvetica">token store</text><text x="344.531" y="102.421" fill="#000" font-size="14" textLength="108.931" font-family="Helvetica">(version attribute)</text><path d="M383.996,41.641 C383.996,31.641 401.996,31.641 401.996,31.641 C401.996,31.641 419.996,31.641 419.996,41.641 L419.996,67.641 C419.996,77.641 401.996,77.641 401.996,77.641 C401.996,77.641 383.996,77.641 383.996,67.641 L383.996,41.641" style="stroke:#181818;stroke-width:0.5;" fill="#E3E3E3"/><path d="M383.996,41.641 C383.996,51.641 401.996,51.641 401.996,51.641 C401.996,51.641 419.996,51.641 419.996,41.641" style="stroke:#181818;stroke-width:0.5;" fill="none"/><rect x="496.513" y="62.641" width="120.6" height="42" fill="#E3E3E3" style="stroke:#181818;stroke-width:0.5;" rx="2.5" ry="2.5"/><text x="510.886" y="80.421" fill="#000" font-size="14" textLength="91.854" font-family="Helvetica">token endpoint</text><text x="503.513" y="94.421" fill="#000" font-size="14" textLength="106.6" font-family="Helvetica">(Google / Strava)</text><rect x="47.721" y="1204.641" width="69.234" height="28" fill="#E3E3E3" style="stroke:#181818;stroke-width:0.5;" rx="2.5" ry="2.5"/><text x="54.721" y="1222.421" fill="#000" font-size="14" textLength="55.234" font-family="Helvetica">worker A</text><rect x="126.956" y="1204.641" width="69.234" height="28" fill="#E3E3E3" style="stroke:#181818;stroke-width:0.5;" rx="2.5" ry="2.5"/><text x="133.956" y="1222.421" fill="#000" font-size="14" textLength="55.234" font-family="Helvetica">worker B</text><text x="364.365" y="1215.421" fill="#000" font-size="14" textLength="69.262" font-family="Helvetica">token store</text><text x="344.531" y="1229.421" fill="#000" font-size="14" textLength="108.931" font-family="Helvetica">(version attribute)</text><path d="M383.996,1242.641 C383.996,1232.641 401.996,1232.641 401.996,1232.641 C401.996,1232.641 419.996,1232.641 419.996,1242.641 L419.996,1268.641 C419.996,1278.641 401.996,1278.641 401.996,1278.641 C401.996,1278.641 383.996,1278.641 383.996,1268.641 L383.996,1242.641" style="stroke:#181818;stroke-width:0.5;" fill="#E3E3E3"/><path d="M383.996,1242.641 C383.996,1252.641 401.996,1252.641 401.996,1252.641 C401.996,1252.641 419.996,1252.641 419.996,1242.641" style="stroke:#181818;stroke-width:0.5;" fill="none"/><rect x="496.513" y="1204.641" width="120.6" height="42" fill="#E3E3E3" style="stroke:#181818;stroke-width:0.5;" rx="2.5" ry="2.5"/><text x="510.886" y="1222.421" fill="#000" font-size="14" textLength="91.854" font-family="Helvetica">token endpoint</text><text x="503.513" y="1236.421" fill="#000" font-size="14" textLength="106.6" font-family="Helvetica">(Google / Strava)</text><path d="M39.88,118.641 L39.88,206.641 L598.88,206.641 L598.88,128.641 L588.88,118.641 L39.88,118.641" style="stroke:#181818;stroke-width:0.5;" fill="#FAFAFA"/><path d="M588.88,118.641 L588.88,128.641 L598.88,128.641 L588.88,118.641" style="stroke:#181818;stroke-width:0.5;" fill="#FAFAFA"/><text x="84.418" y="133.651" fill="#000" font-size="13" textLength="406.713" font-weight="700" font-family="Helvetica">This used to be a correctness problem. It is now a waste problem.</text><text x="84.418" y="146.651" fill="#000" font-size="13" textLength="447.281" font-family="Helvetica">The plan was written against Fitbit, whose refresh tokens were single-use and</text><text x="84.418" y="159.651" fill="#000" font-size="13" textLength="455.26" font-family="Helvetica">rotated: a lost race destroyed a credential and forced a manual re-auth. Neither</text><text x="84.418" y="172.651" fill="#000" font-size="13" textLength="438.61" font-family="Helvetica">Google nor Strava rotates, so a lost race now costs one wasted refresh. The</text><text x="84.418" y="185.651" fill="#000" font-size="13" textLength="461.316" font-family="Helvetica">compare-and-swap stays — it is cheap, and it is what keeps the store's contents</text><text x="84.418" y="198.651" fill="#000" font-size="13" textLength="396.011" font-family="Helvetica">coherent — but do not describe it as load-bearing. See PLAN.md §8.</text><rect x="10" y="231.141" width="662.755" height="3" fill="#EEE" style="stroke:#EEE;stroke-width:1;"/><line x1="10" y1="231.141" x2="672.755" y2="231.141" style="stroke:#000;stroke-width:1;"/><line x1="10" y1="234.141" x2="672.755" y2="234.141" style="stroke:#000;stroke-width:1;"/><rect x="225.658" y="221.641" width="231.439" height="21" fill="#EEE" style="stroke:#000;stroke-width:2;"/><text x="231.658" y="235.651" fill="#000" font-size="13" textLength="213.827" font-weight="700" font-family="Helvetica">both find the access token expired</text><polygon points="389.996,267.641,399.996,271.641,389.996,275.641,393.996,271.641" fill="#181818" style="stroke:#181818;stroke-width:1;stroke-linejoin:miter;stroke-miterlimit:10;"/><line x1="82.339" y1="271.641" x2="395.996" y2="271.641" style="stroke:#181818;stroke-width:1;"/><text x="89.339" y="266.651" fill="#000" font-size="13" textLength="33.236" font-family="Helvetica">load()</text><polygon points="93.339,294.641,83.339,298.641,93.339,302.641,89.339,298.641" fill="#181818" style="stroke:#181818;stroke-width:1;stroke-linejoin:miter;stroke-miterlimit:10;"/><line x1="87.339" y1="298.641" x2="400.996" y2="298.641" style="stroke:#181818;stroke-width:1;stroke-dasharray:2,2;"/><text x="99.339" y="293.651" fill="#000" font-size="13" textLength="46.243" font-family="Helvetica">(tokens,</text><text x="149.193" y="293.651" fill="#000" font-size="13" textLength="57.084" font-weight="700" font-family="Helvetica">version 7</text><text x="206.278" y="293.651" fill="#000" font-size="13" font-family="Helvetica">)</text><polygon points="389.996,321.641,399.996,325.641,389.996,329.641,393.996,325.641" fill="#181818" style="stroke:#181818;stroke-width:1;stroke-linejoin:miter;stroke-miterlimit:10;"/><line x1="161.573" y1="325.641" x2="395.996" y2="325.641" style="stroke:#181818;stroke-width:1;"/><text x="168.573" y="320.651" fill="#000" font-size="13" textLength="33.236" font-family="Helvetica">load()</text><polygon points="172.573,348.641,162.573,352.641,172.573,356.641,168.573,352.641" fill="#181818" style="stroke:#181818;stroke-width:1;stroke-linejoin:miter;stroke-miterlimit:10;"/><line x1="166.573" y1="352.641" x2="400.996" y2="352.641" style="stroke:#181818;stroke-width:1;stroke-dasharray:2,2;"/><text x="178.573" y="347.651" fill="#000" font-size="13" textLength="46.243" font-family="Helvetica">(tokens,</text><text x="228.427" y="347.651" fill="#000" font-size="13" textLength="57.084" font-weight="700" font-family="Helvetica">version 7</text><text x="285.512" y="347.651" fill="#000" font-size="13" font-family="Helvetica">)</text><path d="M15,365.641 L15,401.641 L228,401.641 L228,375.641 L218,365.641 L15,365.641" style="stroke:#181818;stroke-width:0.5;" fill="#FAFAFA"/><path d="M218,365.641 L218,375.641 L228,375.641 L218,365.641" style="stroke:#181818;stroke-width:0.5;" fill="#FAFAFA"/><text x="21" y="380.651" fill="#000" font-size="13" textLength="192.912" font-family="Helvetica">Same pair, same version. Neither</text><text x="21" y="393.651" fill="#000" font-size="13" textLength="132.228" font-family="Helvetica">knows the other exists.</text><rect x="10" y="426.141" width="662.755" height="3" fill="#EEE" style="stroke:#EEE;stroke-width:1;"/><line x1="10" y1="426.141" x2="672.755" y2="426.141" style="stroke:#000;stroke-width:1;"/><line x1="10" y1="429.141" x2="672.755" y2="429.141" style="stroke:#000;stroke-width:1;"/><rect x="294.651" y="416.641" width="93.454" height="21" fill="#EEE" style="stroke:#000;stroke-width:2;"/><text x="300.651" y="430.651" fill="#000" font-size="13" textLength="75.842" font-weight="700" font-family="Helvetica">both refresh</text><polygon points="544.813,462.641,554.813,466.641,544.813,470.641,548.813,466.641" fill="#181818" style="stroke:#181818;stroke-width:1;stroke-linejoin:miter;stroke-miterlimit:10;"/><line x1="82.339" y1="466.641" x2="550.813" y2="466.641" style="stroke:#181818;stroke-width:1;"/><text x="89.339" y="461.651" fill="#000" font-size="13" textLength="148.516" font-family="Helvetica">grant_type=refresh_token</text><polygon points="93.339,489.641,83.339,493.641,93.339,497.641,89.339,493.641" fill="#181818" style="stroke:#181818;stroke-width:1;stroke-linejoin:miter;stroke-miterlimit:10;"/><line x1="87.339" y1="493.641" x2="555.813" y2="493.641" style="stroke:#181818;stroke-width:1;stroke-dasharray:2,2;"/><text x="99.339" y="488.651" fill="#000" font-size="13" textLength="122.84" font-family="Helvetica">access_A, expires_in</text><polygon points="544.813,516.641,554.813,520.641,544.813,524.641,548.813,520.641" fill="#181818" style="stroke:#181818;stroke-width:1;stroke-linejoin:miter;stroke-miterlimit:10;"/><line x1="161.573" y1="520.641" x2="550.813" y2="520.641" style="stroke:#181818;stroke-width:1;"/><text x="168.573" y="515.651" fill="#000" font-size="13" textLength="148.516" font-family="Helvetica">grant_type=refresh_token</text><polygon points="172.573,543.641,162.573,547.641,172.573,551.641,168.573,547.641" fill="#181818" style="stroke:#181818;stroke-width:1;stroke-linejoin:miter;stroke-miterlimit:10;"/><line x1="166.573" y1="547.641" x2="555.813" y2="547.641" style="stroke:#181818;stroke-width:1;stroke-dasharray:2,2;"/><text x="178.573" y="542.651" fill="#000" font-size="13" textLength="122.84" font-family="Helvetica">access_B, expires_in</text><path d="M445.871,560.641 L445.871,609.641 L666.871,609.641 L666.871,570.641 L656.871,560.641 L445.871,560.641" style="stroke:#181818;stroke-width:0.5;" fill="#FAFAFA"/><path d="M656.871,560.641 L656.871,570.641 L666.871,570.641 L656.871,560.641" style="stroke:#181818;stroke-width:0.5;" fill="#FAFAFA"/><text x="451.871" y="575.651" fill="#000" font-size="13" textLength="200.884" font-family="Helvetica">Both succeed. The refresh token is</text><text x="451.871" y="588.651" fill="#000" font-size="13" textLength="197.285" font-family="Helvetica">unchanged and still valid — that is</text><text x="451.871" y="601.651" fill="#000" font-size="13" textLength="161.713" font-family="Helvetica">what "does not rotate" buys.</text><rect x="10" y="634.141" width="662.755" height="3" fill="#EEE" style="stroke:#EEE;stroke-width:1;"/><line x1="10" y1="634.141" x2="672.755" y2="634.141" style="stroke:#000;stroke-width:1;"/><line x1="10" y1="637.141" x2="672.755" y2="637.141" style="stroke:#000;stroke-width:1;"/><rect x="279.832" y="624.641" width="123.091" height="21" fill="#EEE" style="stroke:#000;stroke-width:2;"/><text x="285.832" y="638.651" fill="#000" font-size="13" textLength="105.479" font-weight="700" font-family="Helvetica">the write decides</text><polygon points="389.996,670.641,399.996,674.641,389.996,678.641,393.996,674.641" fill="#181818" style="stroke:#181818;stroke-width:1;stroke-linejoin:miter;stroke-miterlimit:10;"/><line x1="82.339" y1="674.641" x2="395.996" y2="674.641" style="stroke:#181818;stroke-width:1;"/><text x="89.339" y="669.651" fill="#000" font-size="13" textLength="204.864" font-family="Helvetica">save(access_A, expected_version=</text><text x="294.203" y="669.651" fill="#000" font-size="13" font-weight="700" font-family="Helvetica">7</text><text x="301.433" y="669.651" fill="#000" font-size="13" font-family="Helvetica">)</text><polygon points="93.339,697.641,83.339,701.641,93.339,705.641,89.339,701.641" fill="#181818" style="stroke:#181818;stroke-width:1;stroke-linejoin:miter;stroke-miterlimit:10;"/><line x1="87.339" y1="701.641" x2="400.996" y2="701.641" style="stroke:#181818;stroke-width:1;stroke-dasharray:2,2;"/><text x="99.339" y="696.651" fill="#000" font-size="13" textLength="17.342" font-family="Helvetica">ok,</text><text x="120.292" y="696.651" fill="#000" font-size="13" textLength="57.084" font-weight="700" font-family="Helvetica">version 8</text><path d="M87.339,714.641 L87.339,776.641 L332.339,776.641 L332.339,724.641 L322.339,714.641 L87.339,714.641" style="stroke:#181818;stroke-width:0.5;" fill="#FAFAFA"/><path d="M322.339,714.641 L322.339,724.641 L332.339,724.641 L322.339,714.641" style="stroke:#181818;stroke-width:0.5;" fill="#FAFAFA"/><text x="93.339" y="729.651" fill="#000" font-size="13" textLength="128.591" font-weight="700" font-family="Helvetica">Persist before using.</text><text x="225.541" y="729.651" fill="#000" font-size="13" textLength="78.038" font-family="Helvetica">If the process</text><text x="93.339" y="742.651" fill="#000" font-size="13" textLength="224.021" font-family="Helvetica">dies between the refresh and the write,</text><text x="93.339" y="755.651" fill="#000" font-size="13" textLength="208.114" font-family="Helvetica">the store must never hold a pair that</text><text x="93.339" y="768.651" fill="#000" font-size="13" textLength="108.393" font-family="Helvetica">was already spent.</text><polygon points="389.996,796.641,399.996,800.641,389.996,804.641,393.996,800.641" fill="#181818" style="stroke:#181818;stroke-width:1;stroke-linejoin:miter;stroke-miterlimit:10;"/><line x1="161.573" y1="800.641" x2="395.996" y2="800.641" style="stroke:#181818;stroke-width:1;"/><text x="168.573" y="795.651" fill="#000" font-size="13" textLength="204.864" font-family="Helvetica">save(access_B, expected_version=</text><text x="373.437" y="795.651" fill="#000" font-size="13" font-weight="700" font-family="Helvetica">7</text><text x="380.667" y="795.651" fill="#000" font-size="13" font-family="Helvetica">)</text><polygon points="172.573,823.641,162.573,827.641,172.573,831.641,168.573,827.641" fill="#181818" style="stroke:#181818;stroke-width:1;stroke-linejoin:miter;stroke-miterlimit:10;"/><line x1="166.573" y1="827.641" x2="400.996" y2="827.641" style="stroke:#181818;stroke-width:1;stroke-dasharray:2,2;"/><text x="178.573" y="822.651" fill="#000" font-size="13" textLength="46.224" font-weight="700" font-family="Helvetica">conflict</text><text x="228.408" y="822.651" fill="#000" font-size="13" textLength="143.057" font-family="Helvetica">— the row is at version 8</text><path d="M145.573,839.641 L298.915,839.641 L298.915,844.641 L288.915,854.641 L145.573,854.641 L145.573,839.641" style="stroke:#000;stroke-width:1.5;" fill="#EEE"/><rect x="145.573" y="839.641" width="286.298" height="256" fill="none" style="stroke:#000;stroke-width:1.5;"/><text x="160.573" y="850.651" fill="#000" font-size="13" textLength="108.342" font-weight="700" font-family="Helvetica">the losing branch</text><polygon points="389.996,879.641,399.996,883.641,389.996,887.641,393.996,883.641" fill="#181818" style="stroke:#181818;stroke-width:1;stroke-linejoin:miter;stroke-miterlimit:10;"/><line x1="161.573" y1="883.641" x2="395.996" y2="883.641" style="stroke:#181818;stroke-width:1;"/><text x="168.573" y="878.651" fill="#000" font-size="13" textLength="33.236" font-family="Helvetica">load()</text><polygon points="172.573,906.641,162.573,910.641,172.573,914.641,168.573,910.641" fill="#181818" style="stroke:#181818;stroke-width:1;stroke-linejoin:miter;stroke-miterlimit:10;"/><line x1="166.573" y1="910.641" x2="400.996" y2="910.641" style="stroke:#181818;stroke-width:1;stroke-dasharray:2,2;"/><text x="178.573" y="905.651" fill="#000" font-size="13" textLength="124.992" font-family="Helvetica">(access_A, version 8)</text><line x1="161.573" y1="937.641" x2="203.573" y2="937.641" style="stroke:#181818;stroke-width:1;"/><line x1="203.573" y1="937.641" x2="203.573" y2="950.641" style="stroke:#181818;stroke-width:1;"/><line x1="162.573" y1="950.641" x2="203.573" y2="950.641" style="stroke:#181818;stroke-width:1;"/><polygon points="172.573,946.641,162.573,950.641,172.573,954.641,168.573,950.641" fill="#181818" style="stroke:#181818;stroke-width:1;stroke-linejoin:miter;stroke-miterlimit:10;"/><text x="168.573" y="932.651" fill="#000" font-size="13" textLength="75.88" font-family="Helvetica">continue with</text><text x="248.065" y="932.651" fill="#000" font-size="13" textLength="19.709" font-weight="700" font-family="Helvetica">A's</text><text x="271.386" y="932.651" fill="#000" font-size="13" textLength="38.302" font-family="Helvetica">tokens</text><path d="M166.573,963.641 L166.573,1090.641 L410.573,1090.641 L410.573,973.641 L400.573,963.641 L166.573,963.641" style="stroke:#181818;stroke-width:0.5;" fill="#FAFAFA"/><path d="M400.573,963.641 L400.573,973.641 L410.573,973.641 L400.573,963.641" style="stroke:#181818;stroke-width:0.5;" fill="#FAFAFA"/><text x="172.573" y="978.651" fill="#000" font-size="13" textLength="213.465" font-family="Helvetica">B's own access_B is simply dropped.</text><text x="172.573" y="991.651" fill="#000" font-size="13" textLength="184.253" font-family="Helvetica">It is still valid, and using it would</text><text x="172.573" y="1004.651" fill="#000" font-size="13" textLength="223.298" font-family="Helvetica">also work — but then the store and the</text><text x="172.573" y="1017.651" fill="#000" font-size="13" textLength="212.443" font-family="Helvetica">caller disagree about what is current,</text><text x="172.573" y="1030.651" fill="#000" font-size="13" textLength="204.483" font-family="Helvetica">and the next refresh races from two</text><text x="172.573" y="1043.651" fill="#000" font-size="13" textLength="109.123" font-family="Helvetica">different baselines.</text><text x="172.573" y="1056.651" fill="#000" font-size="13" font-family="Helvetica"> </text><text x="172.573" y="1069.651" fill="#000" font-size="13" textLength="220.397" font-family="Helvetica">One rule, no exceptions: **whatever is</text><text x="172.573" y="1082.651" fill="#000" font-size="13" textLength="171.26" font-family="Helvetica">in the store is what you use.**</text><path d="M39.88,1114.641 L39.88,1189.641 L598.88,1189.641 L598.88,1124.641 L588.88,1114.641 L39.88,1114.641" style="stroke:#181818;stroke-width:0.5;" fill="#FAFAFA"/><path d="M588.88,1114.641 L588.88,1124.641 L598.88,1124.641 L588.88,1114.641" style="stroke:#181818;stroke-width:0.5;" fill="#FAFAFA"/><text x="74.074" y="1129.651" fill="#000" font-size="13" textLength="206.629" font-weight="700" font-family="Helvetica">Retry the write, never the refresh.</text><text x="284.315" y="1129.651" fill="#000" font-size="13" textLength="226.173" font-family="Helvetica">A conflict means someone else already</text><text x="74.074" y="1142.651" fill="#000" font-size="13" textLength="446.602" font-family="Helvetica">did the work. Refreshing again on conflict is how a bounded race becomes an</text><text x="74.074" y="1155.651" fill="#000" font-size="13" textLength="482.003" font-family="Helvetica">unbounded one. `oauth.TokenHolder` expresses this as a return value: `on_refresh`</text><text x="74.074" y="1168.651" fill="#000" font-size="13" textLength="443.688" font-family="Helvetica">is handed the new pair and returns the pair to actually use, so `clients/` never</text><text x="74.074" y="1181.651" fill="#000" font-size="13" textLength="144.511" font-family="Helvetica">learns that a store exists.</text><?plantuml-src bLRDRkCs4BxhAGQv914SBxgNRWEaXOt5_W15DjYaxQL0J8bZYx1CgYGLhM_x47s7laSVfK_IRqZPKRBR5WLoSCYPqSptVJF3KxeR70tERza7yhps71gA3LDGEwRejcofKyQJYfDZi-DvSLgSqXsEVkivHECixaqWRTJ6gntn9nDYG0HIDWpiBsbe44Cx3YbGsRh0liJ13tJj8cATf3iJQQrCUq9_VVvT_jdr8P9r-JGTLdr4B5Ctq_GElXj7aecZFl0CGPNLC7Q4p5JRke6rN3RgWMdm9aRucvXh-IMXGBMpTUyzstelNhNgEZWXzPTqTlFZudg-q_Jd7z-TpoWuYaCABGNXAorJvrtLyYv7_CXMiuTtjQVLJctvW4vOqLdNgC3qwdnEhrqgi46k5wnD1lhsvxVpeWXROpibUEwSTNNZdS3lUvxSX4PfDnYx0KHjcDveNgk-ZM-SZTV2spjk7pYQMariRfJ7YUcKZJTAQmdppSkYw1wFwIJhWnOdf08jldgtJ7VBGgkeAYdi99CJelFygprxWBv48of6Ry0WdoU7rykdqR8JOEkSiH5-RvtR0DONT1kzUb3PwyFYfxjtHG7Gc5JjNGW5KLdUYVx0UwAumXMu195rj1p2aHbw7uKowmOO32h4HzBA4d54qbshhDmTDQ8sobW8yOs9bOap8Hir7lj5ieOnkAO015k-G1gYFSJpBgh8-X9VW-GZULL31sWPx_OYBAgX4BRHg3QfTUrydSvtolOuytoX-jZCwPeDXE4HSWJ5EZ_2Cdua94rEloDLrauQqLdErUf3sdCf5T5gjmC7-0ha5mRLWJEr3uV-anPeM7Mpb5m-I9syPUwoyXF7fq4w1rZ5a68YK_m-DgpE6aVTDVXd2GHuMwVqHSNA0xGvtJBJOuUzcXVGWNXnKLnTKULYGsk38_ccgciXTTJBfyv8crrT5SM2Bhw7hEWo1JyxB_3x0aSBd9nbecRGoa6FtvRbUR7y1v_bl_XazRa7wOiPX4zqAoqcmsYMf-HeFYLk2puoPavEnY7vjK8FqZgMb3IFV30-RBoF-uwlHflxb66H3GwbPdpkaLe69zmRc-ly7u6MZu6MJm9DYi-zIBIKh4CFQzP9MK-x0xA1KMzhJBcDo1iLOskqBJserkYaaoYoIdP9O7aVY6gokayWfFrpiDBaHPDAIzK6ydecWe19V_O43Cm3rlSZELTbcTYSYCHjfro_man8nNgpQIAvDUQVp9eRkKUNLOn-PKmTKN1PqljrIWaJHJu9KssGKyLnOBRfwW2B6fMSif_1yjXAuyvZWHTBHMP1sd62Zu2ZP9TvLdfFeKEJJI5PVhNovNzMBXvbYGvUjwQEA2GJWdGnGMHvHZf2KXGRx_ekNMFKoCge8AQw4HayRoMYQJCzCd6CTdxm4WCP8SRsG0KjWuGMfm6vv1Q4tLCcfEdWYydZ1diKgcGRpAvhzwIza-KzJtPvx4yqboTQOax6qU3wLYTBRD7y9ZfEBrHg9_oCr2NZ6iyAyAHDm6R705ELI-yJbKTdUad4MOuxCcxvKppAGCPqe3KMkpmcafqswtMUdh99MuFrXQU0t7p04FTzopCW0KPhxkJX5OGw-M9IJ6eW8ZDD-32pzwwN1PaNtL4q-F7bClt8qUyd0XtrE56mo7r11ydGZl7Gm_xPiQmQRcK1PfMcBXZ53bJdU1Ub009yMgpoP3l6GQvDsiq04iyddHTPnLXJ04hPD4OET_ZKd5OkBSWxKSaxz0lxbSWTdmZfiIdonH_oZhstGdxFb_2ozsCbAyIKpweKCrCqZCzUgqU_FBTp8sB9rX7B6HgJTwPitLNT6bb-BrOPAOHiiTYI6v1N8nDVJFo_0G00?></g></svg>